<svg aria-hidden="true" style="width:0;height:0;position:absolute;overflow:hidden" xmlns="http://www.w3.org/2000/svg"><defs><symbol id="icon-clarity_close-line-1" viewBox="0 0 32 32"><path d="m17.253 16 7.37-7.369a.889.889 0 0 0-1.255-1.252l.001-.001L16 14.747 8.631 7.369a.893.893 0 1 0-1.262 1.26l.001.001L14.747 16l-7.378 7.369a.889.889 0 0 0 .567 1.576.887.887 0 0 0 .685-.322l.001-.001L16 17.253l7.369 7.37a.889.889 0 0 0 1.252-1.255l.001.001-7.369-7.37z"/></symbol><symbol id="icon-ep_arrow-up-1" viewBox="0 0 32 32"><path d="m16.724 21.24 10.62-11.147a.999.999 0 0 0 0-1.379l-.012-.013a.918.918 0 0 0-1.333 0l-10 10.497L6.003 8.702a.917.917 0 0 0-1.334-.001l-.012.012a.995.995 0 0 0 .001 1.38l10.62 11.147a.997.997 0 0 0 1.448 0z"/></symbol><symbol id="icon-menu-1" viewBox="0 0 60 32"><path d="M2 0h56a2 2 0 1 1 0 4H2a2 2 0 1 1 0-4zM2 14h56a2 2 0 1 1 0 4H2a2 2 0 1 1 0-4zM2 28h56a2 2 0 1 1 0 4H2a2 2 0 1 1 0-4z"/></symbol><symbol id="icon-bx_search-1" viewBox="0 0 32 32"><path fill="#fd5103" style="fill:var(--color1,#fd5103)" d="M13.333 24a10.56 10.56 0 0 0 6.552-2.268l-.023.017 5.861 5.861 1.885-1.885-5.861-5.861a10.535 10.535 0 0 0 2.252-6.531c0-5.881-4.785-10.667-10.667-10.667S2.665 7.451 2.665 13.333 7.45 24 13.332 24zm0-18.667c4.412 0 8 3.588 8 8s-3.588 8-8 8-8-3.588-8-8 3.588-8 8-8z"/></symbol></defs></svg>