<svg aria-hidden="true" style="position: absolute; width: 0; height: 0; overflow: hidden;" version="1.1" xmlns="http://www.w3.org/2000/svg" xmlns:xlink="http://www.w3.org/1999/xlink">
<defs>
<symbol id="icon-clarity_close-line-1" viewBox="0 0 32 32">
<path d="M17.253 16l7.37-7.369c0.138-0.156 0.223-0.362 0.223-0.588 0-0.49-0.398-0.888-0.888-0.888-0.226 0-0.433 0.085-0.59 0.224l0.001-0.001-7.369 7.369-7.369-7.378c-0.164-0.183-0.401-0.297-0.665-0.297-0.493 0-0.893 0.4-0.893 0.893 0 0.264 0.114 0.501 0.296 0.664l0.001 0.001 7.377 7.37-7.378 7.369c-0.198 0.164-0.323 0.411-0.323 0.686 0 0.492 0.398 0.89 0.89 0.89 0.275 0 0.522-0.125 0.685-0.322l0.001-0.001 7.378-7.369 7.369 7.37c0.154 0.133 0.357 0.214 0.578 0.214 0.491 0 0.889-0.398 0.889-0.889 0-0.221-0.081-0.424-0.215-0.58l0.001 0.001-7.369-7.37z"></path>
</symbol>
<symbol id="icon-ep_arrow-up-1" viewBox="0 0 32 32">
<path d="M16.724 21.24l10.62-11.147c0.171-0.179 0.276-0.422 0.276-0.689s-0.105-0.51-0.276-0.69l0 0-0.012-0.013c-0.168-0.176-0.404-0.286-0.667-0.286s-0.499 0.11-0.666 0.286l-0 0-10 10.497-9.996-10.496c-0.168-0.177-0.405-0.287-0.667-0.287s-0.499 0.11-0.667 0.286l-0 0-0.012 0.012c-0.171 0.179-0.276 0.422-0.276 0.69s0.105 0.511 0.277 0.69l-0-0 10.62 11.147c0.182 0.191 0.439 0.31 0.724 0.31s0.541-0.119 0.724-0.31l0-0z"></path>
</symbol>
<symbol id="icon-menu-1" viewBox="0 0 60 32">
<path d="M2 0h56c1.105 0 2 0.895 2 2s-0.895 2-2 2h-56c-1.105 0-2-0.895-2-2s0.895-2 2-2z"></path>
<path d="M2 14h56c1.105 0 2 0.895 2 2s-0.895 2-2 2h-56c-1.105 0-2-0.895-2-2s0.895-2 2-2z"></path>
<path d="M2 28h56c1.105 0 2 0.895 2 2s-0.895 2-2 2h-56c-1.105 0-2-0.895-2-2s0.895-2 2-2z"></path>
</symbol>
<symbol id="icon-bx_search-1" viewBox="0 0 32 32">
<path fill="#fd5103" style="fill: var(--color1, #fd5103)" d="M13.333 24c2.473-0.001 4.749-0.848 6.552-2.268l-0.023 0.017 5.861 5.861 1.885-1.885-5.861-5.861c1.404-1.781 2.251-4.057 2.252-6.531v-0c0-5.881-4.785-10.667-10.667-10.667s-10.667 4.785-10.667 10.667 4.785 10.667 10.667 10.667zM13.333 5.333c4.412 0 8 3.588 8 8s-3.588 8-8 8-8-3.588-8-8 3.588-8 8-8z"></path>
</symbol>
</defs>
</svg>
